Coordinates
version=1
nRows=19
nColumns=36
inDegrees=yes

Units are S.I. units (second, meters, Newtons, ...)
If the header above contains a line with 'inDegrees', this indicates whether rotational values are in degrees (yes) or radians (no).

endheader
time	pelvis_tilt	pelvis_list	pelvis_rotation	pelvis_tx	pelvis_ty	pelvis_tz	hip_flexion_r	hip_adduction_r	hip_rotation_r	knee_angle_r	knee_angle_r_beta	ankle_angle_r	subtalar_angle_r	mtp_angle_r	hip_flexion_l	hip_adduction_l	hip_rotation_l	knee_angle_l	knee_angle_l_beta	ankle_angle_l	subtalar_angle_l	mtp_angle_l	lumbar_extension	lumbar_bending	lumbar_rotation	arm_flex_r	arm_add_r	arm_rot_r	elbow_flex_r	pro_sup_r	arm_flex_l	arm_add_l	arm_rot_l	elbow_flex_l	pro_sup_l
      7.20000000	     -8.51936947	      0.14611261	      2.82136487	     -0.37352762	      0.86973974	     -0.62144897	     54.87232193	    -11.49149278	     -6.01163035	     66.59188007	      1.16224756	     20.91326518	     -4.98131073	     -7.49999987	     55.00990980	     -4.30120606	      2.74177750	     67.56590588	      1.17924752	     22.31677044	     -4.01979379	     -7.49999987	    -18.34503309	     -1.38407283	     -3.72846184	     22.42743568	     -9.99007876	      0.83929383	    128.24168879	    107.78376159	     21.81202081	    -15.72045077	     -0.68704884	    127.77169991	     96.87043008
      7.21000000	     -8.07201022	      0.22030145	      2.78281493	     -0.36675541	      0.88245850	     -0.62105959	     52.42551417	    -11.28818433	     -6.36183010	     64.11356269	      1.11899276	     20.25532648	     -5.00860027	     -7.49999987	     52.56232829	     -4.47731342	      2.28776186	     65.03693667	      1.13510868	     21.78895296	     -3.84274810	     -7.49999987	    -17.68698403	     -1.45818158	     -3.66245359	     21.07670841	     -9.96297811	      0.86259838	    128.42866641	    107.79693988	     20.35775560	    -15.67702080	     -0.78912417	    128.09907177	     96.92769625
      7.22000000	     -7.87068223	      0.27168822	      2.74869566	     -0.36020449	      0.89455527	     -0.62070828	     50.27181043	    -11.06762187	     -6.66617423	     61.61009248	      1.07529897	     19.67018846	     -4.72058553	     -7.49999987	     50.40669056	     -4.61412527	      1.90074596	     62.47839854	      1.09045377	     21.18862525	     -3.50017250	     -7.49999987	    -16.77375763	     -1.52827525	     -3.56022404	     19.69136673	     -9.90829307	      0.77371222	    128.62383496	    107.80709818	     18.93061366	    -15.60442610	     -0.86654438	    128.37704971	     96.97225196
      7.23000000	     -7.23639936	      0.32534638	      2.79252246	     -0.35355947	      0.90713066	     -0.62059636	     47.57438601	    -10.94678940	     -7.19564650	     58.98870203	      1.02954707	     18.87136525	     -4.66463296	     -7.49999987	     47.77376568	     -4.69993117	      1.49816670	     59.84260893	      1.04445056	     20.44836832	     -3.34716532	     -7.49999987	    -16.40608647	     -1.53356023	     -3.51074676	     18.36110796	     -9.92054448	      0.70031148	    128.85604448	    107.82120188	     17.59494917	    -15.47958535	     -0.98992797	    128.67522718	     97.04499607
      7.24000000	     -6.86979221	      0.37424552	      2.83563224	     -0.34708809	      0.91895127	     -0.62059376	     45.20245616	    -10.82245377	     -7.68049497	     56.35363468	      0.98355647	     18.09199714	     -4.38788295	     -7.49999987	     45.45865797	     -4.71718748	      1.19480711	     57.19366747	      0.99821781	     19.65552980	     -3.07727864	     -7.49999987	    -15.74536268	     -1.54931137	     -3.44851410	     16.92997542	    -10.00861536	      0.71544181	    129.05991102	    107.81892228	     16.22015241	    -15.33619445	     -1.06263890	    128.93040409	     97.11832170
      7.25000000	     -6.49788849	      0.39458609	      2.87581337	     -0.34069266	      0.93046362	     -0.62059251	     42.82397416	    -10.64579279	     -8.17440906	     53.65810745	      0.93651065	     17.27076414	     -4.11343661	     -7.49999987	     43.13692374	     -4.71985116	      0.95052546	     54.48633577	      0.95096596	     18.83944040	     -2.86941714	     -7.49999987	    -15.11089852	     -1.53633933	     -3.37980172	     15.53297512	    -10.06835581	      0.70136742	    129.22509545	    107.79368591	     14.89453314	    -15.17497373	     -1.13034719	    129.15106833	     97.19371563
      7.26000000	     -6.02877678	      0.40650986	      2.91772667	     -0.33436044	      0.94175333	     -0.62056906	     40.34172724	    -10.44747589	     -8.70125355	     50.91174219	      0.88857753	     16.36694608	     -3.90669548	     -7.49999987	     40.71474829	     -4.71316109	      0.70718561	     51.73517709	      0.90294918	     17.93845611	     -2.79258584	     -7.49999987	    -14.62761153	     -1.49986264	     -3.30390857	     14.22948785	    -10.05524924	      0.62565221	    129.36630633	    107.74286650	     13.67559050	    -14.97935300	     -1.25453269	    129.34194217	     97.28206773
      7.27000000	     -5.60172006	      0.40222549	      2.97414748	     -0.32818441	      0.95254260	     -0.62057895	     37.93308396	    -10.23081555	     -9.23335739	     48.16167867	      0.84057987	     15.43760900	     -3.56046821	     -7.49999987	     38.37990726	     -4.69566089	      0.50878392	     48.99439081	      0.85511343	     16.96486183	     -2.63557945	     -7.49999987	    -14.12623449	     -1.43255602	     -3.22734110	     12.95606862	    -10.04091438	      0.55652317	    129.48182134	    107.68565279	     12.47712541	    -14.77071472	     -1.38815761	    129.51639469	     97.36769120
      7.28000000	     -5.13141479	      0.37118926	      3.05517514	     -0.32211113	      0.96291439	     -0.62063952	     35.48686515	     -9.97505545	     -9.78827045	     45.38615350	      0.79213781	     14.48432431	     -3.27479776	     -7.49999987	     36.02895925	     -4.68002557	      0.36892945	     46.24603908	      0.80714565	     15.99138812	     -2.55544853	     -7.49999987	    -13.69486693	     -1.34314413	     -3.15881901	     11.70119302	    -10.08229369	      0.53842970	    129.57895699	    107.61316000	     11.26324199	    -14.59376155	     -1.44413284	    129.68657104	     97.48096412
      7.29000000	     -4.87727744	      0.34529932	      3.10839089	     -0.31622721	      0.97242619	     -0.62071550	     33.36135855	     -9.68934924	    -10.21600932	     42.67444099	      0.74480950	     13.52615080	     -2.79287864	     -7.49999987	     33.95055679	     -4.65455299	      0.24869356	     43.53728043	      0.75986889	     15.03632442	     -2.22519909	     -7.49999987	    -13.02378928	     -1.27128306	     -3.05736847	     10.43586233	    -10.07192046	      0.45906229	    129.59104425	    107.56998403	     10.07424092	    -14.41003652	     -1.51741023	    129.78960164	     97.55802473
      7.30000000	     -4.34416810	      0.37336766	      3.14531539	     -0.31034843	      0.98178534	     -0.62077582	     30.95837528	     -9.43846871	    -10.69657446	     39.97121607	      0.69762933	     12.44094684	     -2.46086610	     -7.49999987	     31.56435437	     -4.61453660	      0.00726042	     40.80314703	      0.71214926	     13.96725196	     -2.04330945	     -7.49999987	    -12.71003482	     -1.25387696	     -2.98115681	      9.30500462	     -9.97466354	      0.29988869	    129.58069164	    107.52904329	      9.09878304	    -14.22747962	     -1.67611516	    129.87186240	     97.66167657
      7.31000000	     -3.99132419	      0.42319446	      3.17510895	     -0.30471589	      0.99028248	     -0.62084344	     28.83644076	     -9.18789488	    -11.02348641	     37.36416256	      0.65212766	     11.48703498	     -2.07831065	     -7.49999987	     29.41301554	     -4.51352770	     -0.16582949	     38.09532622	      0.66488887	     12.95133989	     -1.84024662	     -7.49999987	    -12.23153301	     -1.25677352	     -2.91109975	      8.18538891	     -9.86777584	      0.15224377	    129.56184560	    107.49772169	      8.13962015	    -14.06367293	     -1.85558947	    129.96041480	     97.78330136
      7.32000000	     -3.58128340	      0.45700621	      3.20528829	     -0.29917647	      0.99833936	     -0.62092188	     26.69044415	     -8.92891332	    -11.40694893	     34.78906053	      0.60718365	     10.48211294	     -1.67548326	     -7.49999987	     27.23095561	     -4.42273878	     -0.31777968	     35.41150424	      0.61804734	     11.89019650	     -1.67218179	     -7.49999987	    -11.84148203	     -1.21780250	     -2.81269565	      7.10278732	     -9.78320907	      0.03137696	    129.51359306	    107.47144021	      7.16107875	    -13.88171174	     -2.05187977	    130.02253711	     97.92096258
      7.33000000	     -3.25821501	      0.46044813	      3.24828315	     -0.29391592	      1.00565521	     -0.62093113	     24.71903499	     -8.62764057	    -11.73453880	     32.30572348	      0.56384124	      9.46885865	     -1.25646417	     -7.49999987	     25.21167674	     -4.36310393	     -0.46413311	     32.78022516	      0.57212286	     10.84029394	     -1.43723584	     -7.49999987	    -11.38359524	     -1.16737575	     -2.73575347	      6.06817003	     -9.68604248	     -0.10586119	    129.43015088	    107.45315205	      6.21936742	    -13.67135405	     -2.26727591	    130.05530488	     98.03032904
      7.34000000	     -2.83129575	      0.50369487	      3.26401027	     -0.28873365	      1.01251297	     -0.62090977	     22.69189220	     -8.33496555	    -12.00308989	     29.89152079	      0.52170546	      8.47544084	     -0.99386620	     -7.49999987	     23.09711259	     -4.25866173	     -0.59034486	     30.18937520	      0.52690400	      9.77880220	     -1.34496702	     -7.49999987	    -11.08891711	     -1.16059003	     -2.66276817	      5.11965289	     -9.58808256	     -0.22776526	    129.35317033	    107.44773450	      5.32332391	    -13.50241415	     -2.46495266	    130.12389709	     98.18081637
      7.35000000	     -2.57459685	      0.55500574	      3.23073917	     -0.28382073	      1.01851270	     -0.62091556	     20.97203099	     -8.07018150	    -12.14047402	     27.64707360	      0.48253246	      7.54665380	     -0.45094395	     -7.49999987	     21.24857681	     -4.17319355	     -0.78876104	     27.73353636	      0.48404152	      8.76909092	     -0.90360550	     -7.49999987	    -10.61458917	     -1.16532967	     -2.54791898	      4.23278162	     -9.46898555	     -0.40600360	    129.15162909	    107.43294896	      4.50196550	    -13.32206735	     -2.69552825	    130.08332561	     98.27051339
      7.36000000	     -2.14391624	      0.61885259	      3.20532232	     -0.27890247	      1.02416336	     -0.62092642	     19.08047170	     -7.80278285	    -12.25302671	     25.44470834	      0.44409394	      6.71637515	     -0.12168449	     -7.49999987	     19.22927278	     -4.05702792	     -0.91761173	     25.31256029	      0.44178752	      7.85080729	     -0.75911938	     -7.49999987	    -10.38616751	     -1.17987765	     -2.45469713	      3.40540743	     -9.37008626	     -0.52499330	    129.02361743	    107.44783898	      3.76296882	    -13.18183674	     -2.88542740	    130.08615237	     98.45546884
      7.37000000	     -1.86279632	      0.66930847	      3.17719538	     -0.27423391	      1.02899954	     -0.62086147	     17.43192705	     -7.53142359	    -12.32554267	     23.36563260	      0.40780722	      5.91033448	      0.26301156	     -7.49999987	     17.47644663	     -3.95987805	     -1.03340997	     23.05336569	      0.40235713	      6.93779699	     -0.42297509	     -7.49999987	    -10.00942315	     -1.19298701	     -2.35170223	      2.64177687	     -9.19118759	     -0.71984136	    128.79342063	    107.45002663	      3.05896645	    -13.00928745	     -3.15036863	    129.99734265	     98.55154435
      7.38000000	     -1.60216913	      0.70480673	      3.15917493	     -0.26987560	      1.03317403	     -0.62085499	     15.87306614	     -7.24834112	    -12.33316649	     21.38045558	      0.37315935	      5.17588960	      0.50419907	     -7.49999987	     15.84035905	     -3.86739833	     -1.05261448	     20.93748214	      0.36542800	      6.09785999	     -0.15258712	     -7.49999987	     -9.66147445	     -1.18105667	     -2.29582223	      1.98057084	     -9.03507843	     -0.86537532	    128.56731972	    107.45651010	      2.35766647	    -12.85770657	     -3.42014956	    129.96366629	     98.62916737
